<svg width="136" height="27" viewBox="0 0 136 27" fill="none" xmlns="http://www.w3.org/2000/svg">
<g clip-path="url(#clip0)">
<path d="M12.5035 26.2014C11.8322 26.5631 10.3496 26.9527 8.39161 26.9527C2.85315 26.9527 0 23.1965 0 18.2161C0 12.234 3.88811 8.92297 8.72727 8.92297C10.6014 8.92297 12.028 9.34033 12.6713 9.70203L11.9441 12.8461C11.2168 12.5122 10.1818 12.2062 8.89511 12.2062C6.01399 12.2062 3.8042 14.0982 3.8042 17.9935C3.8042 21.4992 5.70629 23.6973 8.92308 23.6973C10.014 23.6973 11.2168 23.4469 11.9441 23.113L12.5035 26.2014Z" fill="#0041C4"/>
<path d="M34.6572 23.6695C36.2516 23.8086 37.3985 23.6973 38.6013 23.6973C42.1537 23.6973 44.2516 21.4992 44.2516 17.9935C44.2516 14.0982 41.7901 12.2062 38.6293 12.2062C37.2307 12.2062 36.0279 12.1227 34.6572 12.2896L34.4614 9.14556C36.7272 8.92297 36.7272 8.92297 38.7971 8.92297C44.1397 8.92297 48.4195 12.234 48.4195 18.2161C48.4195 23.1965 45.2866 26.9527 39.1887 26.9527C37.0349 26.9527 36.2796 26.9805 34.6572 26.7579V23.6695Z" fill="#0041C4"/>
<path d="M30.4334 17.7431C30.4334 23.4747 27.2446 26.9527 22.5733 26.9527C17.8181 26.9527 15.0488 23.0295 15.0488 18.0491C15.0488 12.8183 18.0978 8.89514 22.825 8.89514C27.7761 8.89514 30.4334 12.9296 30.4334 17.7431ZM18.881 17.9935C18.881 21.4158 20.3635 23.8364 22.7691 23.8364C25.2027 23.8364 26.6013 21.3045 26.6013 17.8822C26.6013 14.7381 25.2306 12.0392 22.7411 12.0392C20.3076 12.0392 18.881 14.5712 18.881 17.9935Z" fill="#0041C4"/>
<path d="M62.126 19.5516H56.2518V23.6974H62.8253V26.9527H52.6155V9.47949H62.4896V12.7349H56.2518V16.3797H62.126V19.5516Z" fill="#0041C4"/>
<path d="M66.937 9.47949H70.5734V23.6417H76.923V26.9527H66.937V9.47949V9.47949Z" fill="#0041C4"/>
<path d="M84.3356 9.47949V26.9805H80.6992V9.47949H84.3356Z" fill="#0041C4"/>
<path d="M102.462 25.9789C101.343 26.3963 99.2448 26.9527 97.1189 26.9527C94.2098 26.9527 92.084 26.1458 90.6014 24.5877C89.1189 23.0853 88.3357 20.8037 88.3357 18.2439C88.3637 12.4288 92.2238 9.1178 97.4826 9.1178C99.5525 9.1178 101.147 9.56298 101.93 9.98033L101.175 13.1522C100.308 12.7349 99.2168 12.401 97.4546 12.401C94.4336 12.401 92.1679 14.2652 92.1679 18.0492C92.1679 21.6662 94.2378 23.7808 97.2028 23.7808C98.042 23.7808 98.6854 23.6695 98.993 23.5304V19.8577H96.5315V16.7693H102.49V25.9789H102.462Z" fill="#0041C4"/>
<path d="M110.573 9.47949V16.2128H116.531V9.47949H120.14V26.9805H116.531V19.6629H110.573V26.9805H106.937V9.47949H110.573Z" fill="#0041C4"/>
<path d="M128 12.7905H123.692V9.47949H136V12.7905H131.636V26.9527H128V12.7905Z" fill="#0041C4"/>
<path d="M38.014 14.3486H34.5735V17.6875H38.014V14.3486Z" fill="#0041C4"/>
<path d="M38.014 18.8004H34.5735V22.1392H38.014V18.8004Z" fill="#0041C4"/>
<path d="M83.916 7.67102L81.4265 7.00326C81.4265 1.6333 85.93 0.0751785 86.0978 0.0195312L87.0209 2.32889L86.5454 1.18812L87.0209 2.32889C86.937 2.35671 85.3426 2.94101 84.5594 4.74954C85.7062 4.47131 87.3006 4.33219 89.3985 4.52696L89.1188 6.94761C85.1468 6.53025 83.916 7.6432 83.916 7.67102Z" fill="#0041C4"/>
</g>
<defs>
<clipPath id="clip0">
<rect width="136" height="27" fill="white"/>
</clipPath>
</defs>
</svg>
